# xmcd
#
# Track frame offsets:
#	150
#	8317
#	15961
#	25231
#	34774
#	45596
#	56673
#	65926
#	74428
#	83399
#	90908
#	102851
#
# Disc length: 1477 seconds
#
# Revision: 1
# Processed by: cddbd v1.5.2PL0 Copyright (c) Steve Scherf et al.
# Submitted via: audiograbber 1.83.01
#
DISCID=8205c30c
DTITLE=Johnny Cash - Songs of Our Soil
DYEAR=1900
DGENRE=
TTITLE0=Drink to Me
TTITLE1=Five Feet High and Rising
TTITLE2=The Man on the Hill
TTITLE3=Hank and Joe and Me
TTITLE4=Clementine
TTITLE5=Don't Step on Mother's Roses
TTITLE6=Great Speckled Bird 
TTITLE7=I Want to Go Home
TTITLE8=The Caretaker
TTITLE9=Old Apache Squaw
TTITLE10=My Grandfather's Clock
TTITLE11=It Could Be You
EXTD=
EXTT0=
EXTT1=
EXTT2=
EXTT3=
EXTT4=
EXTT5=
EXTT6=
EXTT7=
EXTT8=
EXTT9=
EXTT10=
EXTT11=
PLAYORDER=
